Coordinates
version=1
nRows=10
nColumns=34
inDegrees=yes

Units are S.I. units (second, meters, Newtons, ...)
If the header above contains a line with 'inDegrees', this indicates whether rotational values are in degrees (yes) or radians (no).

endheader
time	pelvis_tilt	pelvis_list	pelvis_rotation	pelvis_tx	pelvis_ty	pelvis_tz	hip_flexion_r	hip_adduction_r	hip_rotation_r	knee_angle_r	ankle_angle_r	subtalar_angle_r	mtp_angle_r	hip_flexion_l	hip_adduction_l	hip_rotation_l	knee_angle_l	ankle_angle_l	subtalar_angle_l	mtp_angle_l	lumbar_extension	lumbar_bending	lumbar_rotation	arm_flex_r	arm_add_r	arm_rot_r	elbow_flex_r	pro_sup_r	arm_flex_l	arm_add_l	arm_rot_l	elbow_flex_l	pro_sup_l
      3.28333330	    -20.46336396	      2.77473712	      0.23406861	     -0.00932454	      1.14522583	     -0.08329063	     45.06712236	     -0.54670896	      6.42205097	     61.81996403	     43.62210629	    -13.72815520	      0.00000000	     45.81609246	      3.21409741	      3.02054042	     64.21129424	     38.89456962	    -13.85918987	      0.00000000	    -11.75601515	      1.45709289	      2.18644631	     10.03331832	    -11.01219605	      0.70290695	     39.13925868	     90.61176417	     12.99163887	     -8.14511580	      6.47985786	     43.30650134	    100.74952944
      3.30000000	    -20.36793852	      2.87549355	      0.12759077	      0.00343488	      1.14736980	     -0.08500698	     44.23541468	     -0.65177897	      6.40560120	     62.25132684	     44.64625965	    -12.64690987	      0.00000000	     45.17884190	      3.71335830	      3.55084351	     64.15029373	     39.30925088	    -14.32597185	      0.00000000	    -12.41645142	      1.29014413	      2.65688531	     10.75415440	    -12.73105708	      2.36175268	     46.03328681	     91.22775219	     14.54140923	     -9.31886252	      6.99369682	     49.50834422	    101.19069970
      3.31666670	    -20.15543606	      2.90119278	     -0.09086248	      0.02219884	      1.15333336	     -0.08389593	     42.49003768	     -0.66194959	      6.50616744	     61.32835317	     44.16306080	    -13.06726877	      0.00000000	     43.40980287	      4.06875067	      4.24476249	     63.18930886	     39.56908869	    -14.05302664	      0.00000000	    -12.12363278	      1.20848046	      2.75493636	     11.31839634	    -13.73630834	      2.46346755	     52.78059547	     92.00326257	     15.24524723	    -10.45398173	      5.03979450	     56.20650114	    101.73372326
      3.33333330	    -19.80130269	      2.97627241	     -0.38436773	      0.04283408	      1.15589648	     -0.08179104	     39.95972692	     -0.62061156	      6.57056016	     59.90012975	     43.42528742	    -13.30846688	      0.00000000	     40.91334824	      4.14711323	      4.49071123	     61.54361259	     39.34374317	    -13.40901305	      0.00000000	    -11.06104480	      1.05456566	      2.94548021	     10.45384697	    -15.04239604	      2.59669087	     61.52520493	     92.77194464	     15.06602111	    -12.43112886	      3.07244974	     64.82401797	    102.09624273
      3.35000000	    -19.41952469	      3.00985775	     -0.71366863	      0.06528237	      1.16093329	     -0.07905288	     37.13918387	     -0.44194102	      6.72405477	     57.81027884	     42.45774463	    -13.45581969	      0.00000000	     37.81023089	      3.98191902	      4.69048485	     59.07254656	     38.92453506	    -12.59132966	      0.00000000	     -9.26601004	      0.95601490	      3.16511959	      8.35195698	    -16.27806326	      2.36862423	     70.81173427	     93.57452498	     14.02394263	    -14.97656947	      1.09896421	     73.93831879	    102.20522609
      3.36666670	    -19.11523409	      3.01437782	     -0.74923703	      0.08497229	      1.17217276	     -0.08195475	     34.06754145	     -0.68708071	      6.50335900	     54.92394606	     40.98902010	    -13.66384261	      0.00000000	     34.59090835	      3.86826939	      4.80151283	     55.79489776	     37.77782635	    -12.06187392	      0.00000000	     -7.12887174	      0.99806059	      3.13584158	      5.50779135	    -17.72914700	      1.53047259	     80.16093890	     94.49082884	     12.38363130	    -17.45145501	     -0.95470398	     83.02379806	    102.14039621
      3.38333330	    -18.54472038	      2.93860837	     -0.86902752	      0.10589027	      1.18801218	     -0.08009871	     30.74534722	     -0.91757195	      5.87426753	     51.97559295	     38.32622197	    -13.33265602	      0.00000000	     30.74053842	      3.43041929	      4.53087854	     52.25601317	     35.65832082	    -11.37523177	      0.00000000	     -5.23715818	      1.01855715	      2.88843368	      2.98474083	    -18.57720268	      0.42684029	     86.93106111	     95.72449869	     10.82819131	    -19.64849919	     -3.47078376	     88.94469519	    101.82844016
      3.40000000	    -18.46223624	      2.75644587	     -0.90384202	      0.12464083	      1.19820677	     -0.07589063	     28.45997212	     -0.73190953	      5.14035375	     50.05369989	     35.18453359	    -12.89576246	      0.00000000	     27.68392385	      2.73962152	      4.21754455	     48.67707430	     33.30285258	    -10.56069914	      0.00000000	     -2.88404729	      0.87716810	      2.83544285	      0.72842798	    -19.54990225	      0.22759493	     92.72833823	     96.59057024	      9.33495587	    -22.27873751	     -4.97894346	     93.20749688	    101.48899405
      3.41666670	    -18.43939858	      2.74265482	     -1.34173270	      0.14625621	      1.20055716	     -0.07197289	     27.37961287	     -0.60181371	      4.45724847	     49.91238913	     32.48296251	    -13.01659540	      0.00000000	     25.28728899	      1.79122729	      3.09958196	     46.34025669	     31.63856295	     -9.02086249	      0.00000000	     -0.54760288	      0.49722406	      2.91623588	     -1.60872135	    -20.41329906	     -0.18267110	     98.14215617	     97.13460333	      7.52681577	    -25.42158081	     -6.36006753	     97.24174950	    101.15587657
      3.43333330	    -17.95119371	      2.57526940	     -1.76539076	      0.16851177	      1.22454013	     -0.07321259	     26.32743680	     -0.58520377	      3.50169026	     50.00480218	     27.65045797	    -13.66896139	      0.00000000	     22.43148983	      1.04164726	      2.07780467	     44.21053186	     27.86785118	     -6.93729396	      0.00000000	      0.68623554	      0.38443115	      2.75076086	     -2.79805615	    -21.10074566	     -0.77006005	    100.05163131	     97.51911580	      6.30994286	    -26.80015681	     -7.70081719	     98.51641779	    100.79720263
